<svg width="22" height="22" viewBox="0 0 22 22" fill="none" xmlns="http://www.w3.org/2000/svg" focusable="false"><path d="M9.10152 12.8046C12.3613 12.8046 15.0038 10.1621 15.0038 6.9023C15.0038 3.64255 12.3613 1 9.10152 1C5.84177 1 3.19922 3.64255 3.19922 6.9023C3.19922 10.1621 5.84177 12.8046 9.10152 12.8046Z" fill="url(#paint0_linear_76_5746)"></path><path d="M9.10152 12.8046C12.3613 12.8046 15.0038 10.1621 15.0038 6.9023C15.0038 3.64255 12.3613 1 9.10152 1C5.84177 1 3.19922 3.64255 3.19922 6.9023C3.19922 10.1621 5.84177 12.8046 9.10152 12.8046Z" fill="url(#paint1_radial_76_5746)" fill-opacity="0.2"></path><path d="M9.10152 12.8046C12.3613 12.8046 15.0038 10.1621 15.0038 6.9023C15.0038 3.64255 12.3613 1 9.10152 1C5.84177 1 3.19922 3.64255 3.19922 6.9023C3.19922 10.1621 5.84177 12.8046 9.10152 12.8046Z" fill="url(#paint2_radial_76_5746)" fill-opacity="0.31"></path><path d="M9.10152 12.8046C12.3613 12.8046 15.0038 10.1621 15.0038 6.9023C15.0038 3.64255 12.3613 1 9.10152 1C5.84177 1 3.19922 3.64255 3.19922 6.9023C3.19922 10.1621 5.84177 12.8046 9.10152 12.8046Z" fill="url(#paint3_radial_76_5746)" fill-opacity="0.7"></path><path d="M14.8672 16.8335C17.6286 16.8335 19.8672 14.5949 19.8672 11.8335C19.8672 9.07207 17.6286 6.8335 14.8672 6.8335C12.1058 6.8335 9.86719 9.07207 9.86719 11.8335C9.86719 14.5949 12.1058 16.8335 14.8672 16.8335Z" fill="url(#paint4_linear_76_5746)"></path><path d="M14.8672 16.8335C17.6286 16.8335 19.8672 14.5949 19.8672 11.8335C19.8672 9.07207 17.6286 6.8335 14.8672 6.8335C12.1058 6.8335 9.86719 9.07207 9.86719 11.8335C9.86719 14.5949 12.1058 16.8335 14.8672 16.8335Z" fill="url(#paint5_radial_76_5746)" fill-opacity="0.5"></path><path d="M14.8672 16.8335C17.6286 16.8335 19.8672 14.5949 19.8672 11.8335C19.8672 9.07207 17.6286 6.8335 14.8672 6.8335C12.1058 6.8335 9.86719 9.07207 9.86719 11.8335C9.86719 14.5949 12.1058 16.8335 14.8672 16.8335Z" fill="url(#paint6_radial_76_5746)" fill-opacity="0.7"></path><path d="M9.86589 20.9998C12.1671 20.9998 14.0326 19.1344 14.0326 16.8332C14.0326 14.532 12.1671 12.6665 9.86589 12.6665C7.5647 12.6665 5.69922 14.532 5.69922 16.8332C5.69922 19.1344 7.5647 20.9998 9.86589 20.9998Z" fill="url(#paint7_linear_76_5746)"></path><path d="M9.86589 20.9998C12.1671 20.9998 14.0326 19.1344 14.0326 16.8332C14.0326 14.532 12.1671 12.6665 9.86589 12.6665C7.5647 12.6665 5.69922 14.532 5.69922 16.8332C5.69922 19.1344 7.5647 20.9998 9.86589 20.9998Z" fill="url(#paint8_linear_76_5746)" fill-opacity="0.32"></path><rect x="1" y="9" width="9" height="9" rx="2" fill="url(#paint9_radial_76_5746)"></rect><rect x="1" y="9" width="9" height="9" rx="2" fill="url(#paint10_radial_76_5746)" fill-opacity="0.6"></rect><path d="M3.61328 14.9676L4.56289 14.4885C4.66996 14.6977 4.80961 14.8518 4.98184 14.9507C5.1564 15.0497 5.34725 15.0992 5.5544 15.0992C5.78482 15.0992 5.96054 15.0542 6.08157 14.9642C6.2026 14.872 6.26311 14.7337 6.26311 14.5493C6.26311 14.4053 6.20492 14.2839 6.08855 14.1849C5.97218 14.0837 5.7662 14.0072 5.47061 13.9555C4.90736 13.8565 4.49772 13.6833 4.2417 13.4359C3.988 13.1885 3.86116 12.8803 3.86116 12.5115C3.86116 12.0526 4.02874 11.686 4.36389 11.4116C4.69905 11.1372 5.14127 11 5.69055 11C6.06062 11 6.38647 11.0731 6.66809 11.2193C6.94972 11.3655 7.17315 11.5747 7.33841 11.8468L6.40974 12.309C6.30734 12.1561 6.19678 12.0459 6.07808 11.9784C5.95938 11.9087 5.81042 11.8738 5.6312 11.8738C5.41708 11.8738 5.25415 11.9188 5.14243 12.0088C5.03304 12.0987 4.97835 12.2157 4.97835 12.3596C4.97835 12.4834 5.03072 12.5924 5.13545 12.6869C5.24252 12.7791 5.45664 12.8545 5.77783 12.913C6.31781 13.0119 6.72046 13.1919 6.98579 13.4528C7.25345 13.7114 7.38728 14.0387 7.38728 14.4345C7.38728 14.9159 7.22785 15.2971 6.90899 15.5783C6.59012 15.8594 6.1351 16 5.54392 16C5.11567 16 4.72931 15.91 4.38484 15.7301C4.0427 15.5479 3.78551 15.2937 3.61328 14.9676Z" fill="white"></path><defs><linearGradient id="paint0_linear_76_5746" x1="4.67479" y1="2.47558" x2="12.5445" y2="12.8046" gradientUnits="userSpaceOnUse"><stop stop-color="#00E3DF"></stop><stop offset="0.410156" stop-color="#0097A8"></stop><stop offset="1" stop-color="#007791"></stop></linearGradient><radialGradient id="paint1_radial_76_5746" cx="0" cy="0" r="1" gradientUnits="userSpaceOnUse" gradientTransform="translate(10.9076 14.4375) rotate(-112.448) scale(9.06303 16.2948)"><stop offset="0.28573" stop-color="#003B5D"></stop><stop offset="0.612265" stop-color="#004A6C" stop-opacity="0.688298"></stop><stop offset="0.968041" stop-color="#006F94" stop-opacity="0"></stop></radialGradient><radialGradient id="paint2_radial_76_5746" cx="0" cy="0" r="1" gradientUnits="userSpaceOnUse" gradientTransform="translate(11.1159 11.8333) rotate(-112.063) scale(7.64933 13.7362)"><stop offset="0.259744" stop-color="#002A42"></stop><stop offset="0.612265" stop-color="#004261" stop-opacity="0.688298"></stop><stop offset="0.968041" stop-color="#006F94" stop-opacity="0"></stop></radialGradient><radialGradient id="paint3_radial_76_5746" cx="0" cy="0" r="1" gradientUnits="userSpaceOnUse" gradientTransform="translate(12.4701 1.625) rotate(124.447) scale(6.39944)"><stop stop-color="#78EDFF"></stop><stop offset="1" stop-color="#2CCFCA" stop-opacity="0"></stop></radialGradient><linearGradient id="paint4_linear_76_5746" x1="11.1172" y1="8.0835" x2="17.7839" y2="16.8335" gradientUnits="userSpaceOnUse"><stop stop-color="#00E0D9"></stop><stop offset="0.476427" stop-color="#009FB8"></stop><stop offset="0.945063" stop-color="#056475"></stop></linearGradient><radialGradient id="paint5_radial_76_5746" cx="0" cy="0" r="1" gradientUnits="userSpaceOnUse" gradientTransform="translate(12.0026 16.0002) rotate(-70.8012) scale(6.17687 11.1294)"><stop stop-color="#004A5D"></stop><stop offset="0.492035" stop-color="#00556C" stop-opacity="0.688298"></stop><stop offset="0.968041" stop-color="#007A86" stop-opacity="0"></stop></radialGradient><radialGradient id="paint6_radial_76_5746" cx="0" cy="0" r="1" gradientUnits="userSpaceOnUse" gradientTransform="translate(17.7208 7.36295) rotate(124.447) scale(5.42114)"><stop stop-color="#78EDFF"></stop><stop offset="1" stop-color="#2CCFCA" stop-opacity="0"></stop></radialGradient><linearGradient id="paint7_linear_76_5746" x1="6.94922" y1="13.0832" x2="11.1159" y2="21.4165" gradientUnits="userSpaceOnUse"><stop offset="0.0534989" stop-color="#75FFF6"></stop><stop offset="0.51144" stop-color="#00C7D1"></stop><stop offset="0.96002" stop-color="#0096AD"></stop></linearGradient><linearGradient id="paint8_linear_76_5746" x1="14.0134" y1="21.0002" x2="11.7869" y2="17.8752" gradientUnits="userSpaceOnUse"><stop offset="0.259744" stop-color="#0E5A5D"></stop><stop offset="0.535716" stop-color="#126C6B" stop-opacity="0.688298"></stop><stop offset="0.968041" stop-color="#1C948A" stop-opacity="0"></stop></linearGradient><radialGradient id="paint9_radial_76_5746" cx="0" cy="0" r="1" gradientUnits="userSpaceOnUse" gradientTransform="translate(1 9) rotate(45) scale(12.7279)"><stop offset="0.0625" stop-color="#00B6BD"></stop><stop offset="0.890131" stop-color="#00495C"></stop></radialGradient><radialGradient id="paint10_radial_76_5746" cx="0" cy="0" r="1" gradientUnits="userSpaceOnUse" gradientTransform="translate(5.5 14.4) rotate(90) scale(6.3 7.17187)"><stop offset="0.566964" stop-color="#1E8581" stop-opacity="0"></stop><stop offset="0.973806" stop-color="#1ECBE6"></stop></radialGradient></defs></svg>